<svg xmlns="http://www.w3.org/2000/svg" viewBox="0 0 767.72 604.25"><defs><style>.cls-1,.cls-2{fill:#fff;}.cls-1{fill-rule:evenodd;}</style></defs><title>Asset 1</title><g id="Layer_2" data-name="Layer 2"><g id="Layer_1-2" data-name="Layer 1"><polygon id="Stroke-19" class="cls-1" points="126.19 25.89 95.65 25.89 95.65 1.44 185.37 1.44 185.37 25.89 154.94 25.89 154.94 137.08 126.19 137.08 126.19 25.89"/><polygon id="Stroke-21" class="cls-1" points="258.65 83.47 258.65 137.08 229.89 137.08 229.89 1.44 258.65 1.44 258.65 55.46 293.16 55.46 293.16 1.44 321.92 1.44 321.92 137.08 293.16 137.08 293.16 83.47 258.65 83.47"/><path id="Stroke-27" class="cls-1" d="M692.42,40.29,683.49,85a1.41,1.41,0,0,0,1.42,1.63h17.85A1.4,1.4,0,0,0,704.18,85l-8.93-44.75A1.45,1.45,0,0,0,692.42,40.29Zm-13.89,67.39-6.51,29a1.43,1.43,0,0,1-1.41,1.08H643.67a1.39,1.39,0,0,1-1.41-1.67L671.82,10.66A11.38,11.38,0,0,1,683,2.11h21.77a11.16,11.16,0,0,1,11,8.39l29.53,125.59a1.39,1.39,0,0,1-1.41,1.66H716.76a1.42,1.42,0,0,1-1.41-1.09l-6.32-29a1.42,1.42,0,0,0-1.41-1.09H679.94A1.43,1.43,0,0,0,678.53,107.68Z"/><path id="Stroke-27-2" data-name="Stroke-27" class="cls-1" d="M418.17,40.54,409.24,85.3a1.4,1.4,0,0,0,1.42,1.63h17.85a1.39,1.39,0,0,0,1.41-1.63L421,40.54A1.46,1.46,0,0,0,418.17,40.54Zm-13.89,67.4-6.52,29a1.41,1.41,0,0,1-1.4,1.08H369.41a1.39,1.39,0,0,1-1.4-1.67L397.57,10.92a11.37,11.37,0,0,1,11.2-8.55h21.77a11.17,11.17,0,0,1,11,8.39l29.52,125.59a1.38,1.38,0,0,1-1.4,1.66H442.5a1.42,1.42,0,0,1-1.41-1.09l-6.32-29a1.41,1.41,0,0,0-1.41-1.09H405.69A1.42,1.42,0,0,0,404.28,107.94Z"/><path class="cls-2" d="M51.61,137H22.38V1.71H51.61Z"/><path class="cls-2" d="M558.47,138.66q-19.35,0-32.85-9.41t-13.5-22.84V32.33q0-13.42,13.61-22.88T558.47,0q19.35,0,32.79,9.49t13.45,22.84V47.75h-30.3V36.27q0-4.91-4.94-8.34a20.35,20.35,0,0,0-12-3.45,20,20,0,0,0-11.8,3.45q-4.89,3.43-4.89,8.34v66.46q0,4.89,4.89,8.3a20.08,20.08,0,0,0,11.8,3.42,20.48,20.48,0,0,0,12-3.42q4.95-3.41,4.94-8.3V87.57h30.3v18.84q0,13.5-13.61,22.87T558.47,138.66Z"/><polygon id="Stroke-25" class="cls-1" points="551.1 602.85 551.1 467.21 632.98 467.21 632.98 493.22 579.86 493.22 579.86 522.56 618.65 522.56 618.65 547.9 579.86 547.9 579.86 577.25 632.98 577.25 632.98 602.85 551.1 602.85"/><path class="cls-2" d="M46.35,604.25q-19.35,0-32.85-9.5T0,572V497.91Q0,484.5,13.61,475t32.74-9.46q19.34,0,32.79,9.49t13.45,22.84v15.43H62.29V501q0-4.9-4.94-8.34a20.38,20.38,0,0,0-12-3.45,19.93,19.93,0,0,0-11.8,3.45Q28.7,496.1,28.7,501v67.31c0,3.27,1.63,6,4.89,8.31A20.13,20.13,0,0,0,45.39,580a20.57,20.57,0,0,0,12-3.41c3.29-2.28,4.94-5,4.94-8.31V545.15H46V524.76H92.59V572q0,13.5-13.61,22.88T46.35,604.25Z"/><path class="cls-2" d="M183.19,465.66q19.34,0,32.9,9.49t13.55,22.91v73.78q0,13.5-13.61,22.95t-32.84,9.46q-19.24,0-32.69-9.5t-13.45-22.91V498.06q0-13.5,13.61-22.95T183.19,465.66Zm15.94,35.48q0-4.89-4.84-8.26a20.18,20.18,0,0,0-11.85-3.38,20.51,20.51,0,0,0-11.85,3.38q-5,3.36-4.94,8.26v67.11q0,4.82,4.94,8.22a20.37,20.37,0,0,0,11.85,3.41,20,20,0,0,0,11.85-3.41q4.85-3.4,4.84-8.22Z"/><path class="cls-2" d="M321.09,467.29q24.45,0,35.82,9.42Q367,484.93,367,499.54v19.65q0,14.4-15.6,24.25l21.66,59.1H341.54l-17.83-51.09c-.85,0-1.73.07-2.65.07H304.29v51H275.06V467.29Zm17.43,32.63q0-11.79-16.64-11.79H304.29v43.23h17.59a19.76,19.76,0,0,0,11.82-3.45q4.82-3.45,4.82-8.27Z"/><path class="cls-2" d="M459.1,604.25q-19.35,0-32.85-9.5T412.75,572V497.91q0-13.41,13.61-22.87t32.74-9.46q19.35,0,32.79,9.49t13.45,22.84v15.43H475V501q0-4.9-4.94-8.34a20.35,20.35,0,0,0-12-3.45,19.93,19.93,0,0,0-11.8,3.45q-4.89,3.43-4.89,8.34v67.31c0,3.27,1.63,6,4.89,8.31a20.13,20.13,0,0,0,11.8,3.41,20.55,20.55,0,0,0,12-3.41c3.3-2.28,4.94-5,4.94-8.31V545.15H458.78V524.76h46.56V572q0,13.5-13.61,22.88T459.1,604.25Z"/><path class="cls-2" d="M685.81,595.28Q674,586.49,674,570.08v-7.73h29.89v7.57c0,8.75,5.46,12.28,16.38,12.28,5.36,0,9.44-1.07,12.21-3.19a12.68,12.68,0,0,0,5-10.33c0-5.67-5-10-7.46-12.41-4.18-4-10.92-8.64-21.27-14.69-13-7.72-21.28-13.73-25.59-21a41.65,41.65,0,0,1-6.05-22c0-10.69,3.17-19,11.21-24.82s18-8.79,33.36-8.79q22.69,0,34.34,8.79T767.72,499v5.6H737.83v-5.24c0-4.64-1.34-7.16-4-9.29S727.2,486.9,722,486.9q-15.81,0-15.81,12.94c0,4.89,4.19,8.92,6.74,11.15,4.36,3.8,11.07,8.54,21.41,14.59,13.22,7.73,20.61,14.74,25.6,21s6.62,14.57,6.62,23.06q0,16.62-12.22,25.49c-8.14,5.93-18.26,8.89-33.78,8.89Q697.6,604.07,685.81,595.28Z"/><path class="cls-2" d="M328.73,369.75H299.5V234.5h29.23Z"/><path class="cls-2" d="M386.31,363.13q-11.78-8.78-11.78-25.2v-7.72h29.89v7.56c0,8.76,5.46,12.28,16.38,12.28,5.36,0,9.44-1.06,12.21-3.19a12.66,12.66,0,0,0,5-10.33c0-5.66-5-10-7.46-12.41-4.18-4-10.92-8.63-21.27-14.69-13-7.72-21.28-13.73-25.59-20.95a41.65,41.65,0,0,1-6.05-22c0-10.69,3.17-19,11.21-24.82s18-8.78,33.36-8.78q22.69,0,34.34,8.78t11.64,25.21v5.6H438.33v-5.25c0-4.63-1.34-7.16-4-9.28s-6.61-3.19-11.78-3.19q-15.81,0-15.81,12.94c0,4.89,4.19,8.92,6.74,11.15,4.36,3.8,11.07,8.54,21.41,14.59,13.22,7.73,20.61,14.75,25.6,21.05s6.62,14.57,6.62,23.07q0,16.6-12.22,25.49c-8.14,5.92-18.26,8.88-33.78,8.88Q398.1,371.92,386.31,363.13Z"/></g></g></svg>